<svg id="Layer_1" data-name="Layer 1" xmlns="http://www.w3.org/2000/svg" viewBox="0 0 256 256"><defs><style>.cls-1{fill:#ee5b2d;}.cls-2{fill:#397cbc;}</style></defs><path class="cls-1" d="M239,47.1c-3.6,4.6-6.56,8.46-9.6,12.26-7.26,9.07-14.62,18.07-21.78,27.21a6.7,6.7,0,0,1-6,2.79c-26.61-.1-53.22-.06-79.82-.06-8.14,0-16.19.46-24,3.22-11.27,4-20.22,10.68-25.51,21.59-6.81,14.06-2.63,32,9.84,41.73,9.81,7.67,21.11,11,33.28,11.27,14.49.33,29,.09,43.49.1,1,0,1.92.06,2.87,0,1.82-.14,2.6.58,2.53,2.47-.11,2.54,0,5.09,0,7.64q0,14.1,0,28.2c0,3.44,0,3.51-3.28,3.51-15,0-29.95.2-44.92-.09-20.17-.38-39.42-4.73-57.09-14.83-18.83-10.76-32.75-25.85-38.75-47-7.06-24.84-2.4-47.6,14.55-67.39C47.28,65.06,63.67,56.66,82,51.64A133.72,133.72,0,0,1,116.9,47c39.51-.14,79-.07,118.53-.08C236.21,46.93,237,47,239,47.1Z"/><path class="cls-2" d="M95.3,143.93c2-2.49,3.55-4.45,5.17-6.33,8-9.27,16.12-18.46,24-27.81,1.59-1.88,3.33-2,5.45-2q36.08,0,72.13,0c9.55,0,19.1,0,28.65,0,3.33,0,3.39.08,3.39,3.48q0,47,0,94.09c0,3.58,0,3.62-3.67,3.63q-21.74,0-43.46,0c-4.48,0-4.48.55-4.47-4.3q0-27.7,0-55.41c0-1.11,0-2.23,0-3.34.08-1.46-.66-2-2-2-1.11,0-2.23,0-3.34,0H95.3Z"/></svg>